<svg xmlns="http://www.w3.org/2000/svg" viewBox="172.50038146972656 145.21636822509765 230 230"><rect height="100%" width="100%" x="172.50038146972656" y="145.21636822509765" fill="rgba(255, 255, 255, 1)"/> <svg x="242.50038146972656" y="215.21636822509765" xmlns="http://www.w3.org/2000/svg" preserveAspectRatio="xMinYMin" width="90" height="90" fill="#05006D" fill-opacity="1" style="overflow: visible;"><rect x="0" y="0" height="90" width="90" stroke-width="0" stroke="#000" rx="15" style=""></rect></svg> <svg xmlns="http://www.w3.org/2000/svg" xmlns:xlink="http://www.w3.org/1999/xlink" version="1.0" id="Layer_1" x="263.49838146972655" y="223.85936822509765" viewBox="213.33714294433594 196.89039611816406 72.58418273925781 109.40959167480469" xml:space="preserve" height="72.35743745615522" width="48.003173828125" preserveAspectRatio="xMinYMin" enable-background="new 0 0 500 500" style="overflow: visible;"><path class="st0" d="M285.3,205.3L263.8,248l-7.4-11.2c-1.9-2.8-5-4.5-8.4-4.5c-3.8,0-7.3,2.1-9,5.6l-9.8,19.4l-9.5-14.4  c-1.8-2.7-1-6.3,1.6-8l55.7-37C281.8,194.6,287.9,200,285.3,205.3z" style="fill: #ffffff; fill-opacity: 1;"></path><path class="st1" d="M268.7,273.7L221,305.4c-0.9,0.6-1.8,0.9-2.7,0.9c-3.4,0-6.2-3.6-4.4-7.2l18.5-36.8l11.1-22  c0.9-1.8,2.7-2.7,4.4-2.7c1.6,0,3.1,0.7,4.1,2.2l9,13.6l9,13.6C271.6,269.1,271,272.2,268.7,273.7z" style="fill: #77D4E0;"></path></svg></svg>