<svg xmlns="http://www.w3.org/2000/svg" viewBox="106.76318981933593 139.67263793945312 361.47361755371094 295.6547031402588"> <svg xmlns="http://www.w3.org/2000/svg" xmlns:xlink="http://www.w3.org/1999/xlink" version="1.0" id="Layer_1" x="248.6867787475586" y="209.67263793945312" viewBox="213.33714294433594 196.89039611816406 72.58418273925781 109.40959167480469" xml:space="preserve" height="117.01068115234375" width="77.62687057473127" preserveAspectRatio="xMinYMin" enable-background="new 0 0 500 500" style="overflow: visible;"><path class="st0" d="M285.3,205.3L263.8,248l-7.4-11.2c-1.9-2.8-5-4.5-8.4-4.5c-3.8,0-7.3,2.1-9,5.6l-9.8,19.4l-9.5-14.4  c-1.8-2.7-1-6.3,1.6-8l55.7-37C281.8,194.6,287.9,200,285.3,205.3z" style="fill: #05006D;"></path><path class="st1" d="M268.7,273.7L221,305.4c-0.9,0.6-1.8,0.9-2.7,0.9c-3.4,0-6.2-3.6-4.4-7.2l18.5-36.8l11.1-22  c0.9-1.8,2.7-2.7,4.4-2.7c1.6,0,3.1,0.7,4.1,2.2l9,13.6l9,13.6C271.6,269.1,271,272.2,268.7,273.7z" style="fill: #77D4E0;"></path></svg> <svg y="334.6726379394531" viewBox="1.2463854551315308 5.690000057220459 221.47361755371094 30.65470314025879" x="176.76318981933593" height="30.65470314025879" width="221.47361755371094" xmlns="http://www.w3.org/2000/svg" style="overflow: visible;"><g fill="#000" style=""><path d="M13.88 22L19.09 21.94Q18.89 24.33 17.52 26.19Q16.16 28.05 13.93 29.05Q11.70 30.05 9.11 30L9.11 30Q5.55 29.92 3.50 27.70Q1.45 25.48 1.27 21.69L1.27 21.69Q1.13 19.16 1.82 16.17Q2.52 13.19 4.09 10.98Q5.66 8.77 7.79 7.66Q9.92 6.56 12.45 6.61L12.45 6.61Q16.17 6.67 18.34 8.84Q20.50 11.02 20.69 14.83L20.69 14.83L15.36 14.81Q15.39 12.73 14.61 11.84Q13.83 10.95 12.14 10.89L12.14 10.89Q7.92 10.75 7 17.45L7 17.45Q6.58 20.48 6.58 21.78L6.58 21.78Q6.50 25.63 9.42 25.73L9.42 25.73Q11.31 25.80 12.44 24.80Q13.56 23.81 13.88 22L13.88 22ZM34.86 29.69L29.86 29.69Q29.64 29.08 29.64 28.16L29.64 28.16Q27.91 30.06 25.50 30L25.50 30Q23.30 29.97 21.84 28.53Q20.39 27.09 20.48 25.05L20.48 25.05Q20.56 22.30 22.78 20.82Q25 19.34 28.84 19.34L28.84 19.34L30.56 19.38L30.75 18.42L30.81 17.59Q30.75 16.17 29.39 16.13L29.39 16.13Q27.70 16.09 27.31 17.98L27.31 17.98L22.16 18Q22.23 16.30 23.27 15.04Q24.30 13.78 26.07 13.10Q27.84 12.42 29.84 12.47L29.84 12.47Q31.77 12.52 33.21 13.27Q34.66 14.03 35.38 15.38Q36.09 16.73 35.92 18.50L35.92 18.50L34.66 26.45L34.58 27.42Q34.52 28.58 34.88 29.39L34.88 29.39L34.86 29.69ZM26.92 26.28L26.92 26.28Q28.50 26.34 29.69 24.89L29.69 24.89L30.20 22.17L28.88 22.16Q27.64 22.19 26.75 22.88Q25.86 23.58 25.70 24.78L25.70 24.78Q25.63 25.42 25.95 25.84Q26.27 26.25 26.92 26.28ZM39.92 12.78L44.70 12.77L44.36 14.80Q46.39 12.41 49.30 12.47L49.30 12.47Q50.83 12.50 51.81 13.19Q52.80 13.88 53.13 15.02L53.13 15.02Q55.36 12.41 58.27 12.47L58.27 12.47Q60.61 12.52 61.74 14.23Q62.88 15.94 62.56 19.05L62.56 19.05L60.80 29.69L55.64 29.69L57.44 19.03L57.50 18.11Q57.50 16.56 56.05 16.52L56.05 16.52Q54.69 16.52 53.52 17.91L53.52 17.91L51.47 29.69L46.31 29.69L48.09 19.06L48.16 18.13Q48.16 16.52 46.70 16.52L46.70 16.52Q45.38 16.52 44.20 17.91L44.20 17.91L42.13 29.69L36.98 29.69L39.92 12.78ZM80.58 20.94L80.53 21.27Q80.05 25.38 78.11 27.73Q76.17 30.09 73.02 30.02L73.02 30.02Q70.52 29.95 69.17 27.92L69.17 27.92L68.53 29.69L63.88 29.69L68.05 5.69L73.19 5.69L71.52 14.17Q73.22 12.44 75.31 12.47L75.31 12.47Q77.80 12.50 79.19 14.24Q80.58 15.98 80.66 18.98L80.66 18.98Q80.67 19.98 80.58 20.94L80.58 20.94ZM75.39 21.28L75.42 20.95Q75.55 20 75.56 19.14L75.56 19.14Q75.56 16.63 73.77 16.52L73.77 16.52Q72.17 16.45 71.09 17.88L71.09 17.88L69.88 24.63Q70.36 25.92 72 25.95L72 25.95Q74.52 26.03 75.17 22.67L75.17 22.67L75.39 21.28ZM94.34 12.64L93.67 17.55Q92.84 17.42 92.08 17.39L92.08 17.39Q89.77 17.33 88.55 18.98L88.55 18.98L86.64 29.69L81.50 29.69L84.44 12.78L89.23 12.77L88.84 14.98Q90.50 12.42 92.75 12.42L92.75 12.42Q93.39 12.42 94.34 12.64L94.34 12.64ZM101.75 12.78L98.81 29.69L93.66 29.69L96.59 12.78L101.75 12.78ZM97.05 8.52L97.05 8.52Q97.02 7.38 97.85 6.61Q98.69 5.84 99.88 5.84L99.88 5.84Q101.08 5.84 101.88 6.53Q102.69 7.22 102.72 8.33L102.72 8.33Q102.75 9.48 101.92 10.24Q101.09 11 99.89 11L99.89 11Q98.72 11 97.90 10.32Q97.08 9.64 97.05 8.52ZM102.88 21.53L102.92 21.20Q103.41 17.20 105.36 14.80Q107.31 12.39 110.45 12.47L110.45 12.47Q112.61 12.53 114.03 14.28L114.03 14.28L115.67 5.69L120.83 5.69L116.67 29.69L112.09 29.69L112.31 27.86Q110.42 30.08 108.11 30.02L108.11 30.02Q105.67 29.98 104.29 28.21Q102.91 26.44 102.81 23.45L102.81 23.45Q102.78 22.47 102.88 21.53L102.88 21.53ZM108.05 21.55L108.05 21.55Q107.92 22.55 107.94 23.30L107.94 23.30Q107.94 25.89 109.69 25.94L109.69 25.94Q111.20 25.98 112.39 24.48L112.39 24.48L113.55 18Q113.03 16.56 111.48 16.52L111.48 16.52Q110.05 16.48 109.16 17.76Q108.28 19.03 108.05 21.55ZM120.56 21.20L120.56 21.20Q120.86 18.66 121.96 16.59Q123.06 14.53 124.72 13.48Q126.38 12.42 128.47 12.45L128.47 12.45Q131.02 12.52 132.31 14.28L132.31 14.28L132.86 12.77L137.61 12.78L134.84 29.03Q134.38 32.47 131.83 34.45Q129.28 36.44 125.48 36.34L125.48 36.34Q123.80 36.31 122.22 35.67Q120.64 35.03 119.52 33.73L119.52 33.73L121.95 30.70Q123.31 32.42 125.48 32.47L125.48 32.47Q128.91 32.53 129.83 28.83L129.83 28.83L129.95 28.31Q128.20 30.03 126.09 30L126.09 30Q124.47 29.98 123.23 29.18Q122 28.38 121.30 26.86Q120.59 25.34 120.50 23.48L120.50 23.48Q120.44 22.55 120.56 21.20ZM125.64 22.88L125.64 22.88Q125.64 24.31 126.16 25.11Q126.67 25.91 127.66 25.94L127.66 25.94Q129.11 26 130.30 24.81L130.30 24.81L131.63 17.64Q131 16.55 129.53 16.52L129.53 16.52Q128.03 16.48 127.02 17.79Q126 19.09 125.73 21.22L125.73 21.22Q125.64 22.20 125.64 22.88ZM146.39 30L146.11 30Q143.84 29.98 142.07 28.93Q140.30 27.88 139.39 25.99Q138.48 24.11 138.67 21.84L138.67 21.84L138.72 21.41Q139.14 17.23 141.62 14.80Q144.09 12.38 147.69 12.47L147.69 12.47Q149.86 12.50 151.41 13.57Q152.95 14.64 153.67 16.52Q154.39 18.41 154.14 20.75L154.14 20.75L153.84 22.89L143.78 22.89Q143.81 24.22 144.53 25.05Q145.25 25.88 146.63 25.92L146.63 25.92Q148.86 25.98 150.64 24.20L150.64 24.20L152.80 27.06Q151.84 28.42 150.13 29.20Q148.42 29.97 146.39 30L146.39 30ZM147.36 16.52L147.36 16.52Q146.27 16.48 145.46 17.20Q144.66 17.92 144.06 19.61L144.06 19.61L149.20 19.61L149.30 19.16Q149.39 18.61 149.33 18.13L149.33 18.13Q149.06 16.56 147.36 16.52ZM183.25 6.94L182.52 11.17L175.89 11.17L172.69 29.69L167.33 29.69L170.55 11.17L164.03 11.17L164.78 6.94L183.25 6.94ZM195.08 22L200.30 21.94Q200.09 24.33 198.73 26.19Q197.36 28.05 195.13 29.05Q192.91 30.05 190.31 30L190.31 30Q186.75 29.92 184.70 27.70Q182.66 25.48 182.47 21.69L182.47 21.69Q182.33 19.16 183.02 16.17Q183.72 13.19 185.29 10.98Q186.86 8.77 188.99 7.66Q191.13 6.56 193.66 6.61L193.66 6.61Q197.38 6.67 199.54 8.84Q201.70 11.02 201.89 14.83L201.89 14.83L196.56 14.81Q196.59 12.73 195.81 11.84Q195.03 10.95 193.34 10.89L193.34 10.89Q189.13 10.75 188.20 17.45L188.20 17.45Q187.78 20.48 187.78 21.78L187.78 21.78Q187.70 25.63 190.63 25.73L190.63 25.73Q192.52 25.80 193.64 24.80Q194.77 23.81 195.08 22L195.08 22ZM222.09 17.53L220.63 26.89Q219.34 28.39 216.89 29.21Q214.44 30.03 211.45 29.98L211.45 29.98Q208.59 29.95 206.63 28.55Q204.66 27.14 203.81 24.63Q202.97 22.11 203.36 18.95L203.36 18.95L203.48 18.02Q204.20 12.72 207.21 9.63Q210.22 6.53 214.58 6.61L214.58 6.61Q218.39 6.67 220.44 8.66Q222.48 10.64 222.72 14.39L222.72 14.39L217.59 14.38Q217.48 12.55 216.70 11.70Q215.91 10.86 214.45 10.81L214.45 10.81Q212.30 10.73 210.89 12.51Q209.48 14.28 208.97 17.58L208.97 17.58Q208.53 20.39 208.66 21.95L208.66 21.95Q208.89 25.72 212.05 25.77L212.05 25.77Q213.95 25.80 215.39 24.84L215.39 24.84L216.09 21.30L212.39 21.30L213.05 17.53L222.09 17.53Z" transform="translate(0, 0)"></path></g></svg></svg>